<svg xmlns="http://www.w3.org/2000/svg" id="signin" fill="#666666" width="16" height="16" viewBox="0 0 55 64"><path d="M42.29 32q0 .93-.68 1.6L22.18 53.05q-.68.68-1.6.68t-1.62-.68-.67-1.61V41.14h-16q-.93 0-1.61-.68T0 38.86V25.14q0-.93.68-1.6t1.6-.68h16V12.57q0-.93.68-1.6t1.61-.68 1.6.67L41.62 30.4q.68.68.68 1.61zm12.57-12.57v25.14q0 4.25-3.02 7.27t-7.27 3.02H33.14q-.46 0-.8-.34t-.34-.8l-.04-.72q-.04-.57-.02-.94t.11-.84.36-.7.73-.23h11.43q2.36 0 4.04-1.68t1.67-4.04V19.43q0-2.36-1.67-4.04t-4.04-1.67H33.43l-.41-.04-.42-.1-.28-.2-.25-.32-.07-.49-.04-.71q-.04-.57-.02-.95t.11-.84.36-.7.73-.22h11.43q4.25 0 7.27 3.01t3.01 7.27z"/></svg>