<svg id="search" xmlns="http://www.w3.org/2000/svg" viewBox="0 0 64.8 66">
  <path d="M44.2 28.4a15.4 15.4 0 0 0-4.7-11.3 15.4 15.4 0 0 0-11.3-4.7A15.4 15.4 0 0 0 17 17.1a15.4 15.4 0 0 0-4.7 11.3A15.4 15.4 0 0 0 17 39.7a15.4 15.4 0 0 0 11.3 4.7 15.4 15.4 0 0 0 11.3-4.7 15.4 15.4 0 0 0 4.7-11.3zm18.3 29.7a4.6 4.6 0 0 1-4.6 4.6 4.2 4.2 0 0 1-3.2-1.3L42.5 49a24.4 24.4 0 0 1-14.3 4.5 24.7 24.7 0 0 1-9.8-2 25.1 25.1 0 0 1-8-5.4 25.3 25.3 0 0 1-5.3-8 25 25 0 0 1 0-19.5 25.2 25.2 0 0 1 5.3-8 25 25 0 0 1 8-5.4 25 25 0 0 1 19.6 0 24.7 24.7 0 0 1 13.4 13.4 24.7 24.7 0 0 1 2 9.7A24.5 24.5 0 0 1 49 42.7l12.2 12.2a4.4 4.4 0 0 1 1.3 3.2z"/>
</svg>
